<?xml version="1.0" standalone="no"?>
<!DOCTYPE svg PUBLIC "-//W3C//DTD SVG 1.1//EN" "http://www.w3.org/Graphics/SVG/1.1/DTD/svg11.dtd" >
<svg xmlns="http://www.w3.org/2000/svg">
<metadata>Generated by IcoMoon</metadata>
<defs>
<font id="icomoon" horiz-adv-x="1024">
<font-face units-per-em="1024" ascent="960" descent="-64" />
<missing-glyph horiz-adv-x="1024" />
<glyph unicode="&#x20;" horiz-adv-x="512" d="" />
<glyph unicode="&#xe900;" glyph-name="remove" d="M810 384.667h-596v84h596v-84z" />
<glyph unicode="&#xe901;" glyph-name="list" d="M298 724.667h598v-84h-598v84zM298 384.667v84h598v-84h-598zM298 128.667v84h598v-84h-598zM170 234.667q26 0 45-19t19-45-19-45-45-19-45 19-19 45 19 45 45 19zM170 746.667q26 0 45-18t19-46-19-46-45-18-45 18-19 46 19 46 45 18zM170 490.667q26 0 45-18t19-46-19-46-45-18-45 18-19 46 19 46 45 18z" />
<glyph unicode="&#xe902;" glyph-name="add" d="M810 384.667h-256v-256h-84v256h-256v84h256v256h84v-256h256v-84z" />
<glyph unicode="&#xe903;" glyph-name="cart" d="M306 308.667q0-10 10-10h494v-86h-512q-34 0-59 26t-25 60q0 20 10 40l58 106-154 324h-86v84h140q40-84 80-170 10-18 46-95t56-119h300q150 272 164 300l74-42-164-298q-24-44-74-44h-318l-38-70zM726 170.667q34 0 59-26t25-60-25-59-59-25-60 25-26 59 26 60 60 26zM298 170.667q34 0 60-26t26-60-26-59-60-25-59 25-25 59 25 60 59 26zM470 554.667v128h-128v86h128v128h84v-128h128v-86h-128v-128h-84z" />
<glyph unicode="&#xe904;" glyph-name="remove-circle" d="M726 384.667v84h-428v-84h428zM512 852.667q176 0 301-125t125-301-125-301-301-125-301 125-125 301 125 301 301 125z" />
<glyph unicode="&#xe905;" glyph-name="add-circle" d="M726 384.667v84h-172v172h-84v-172h-172v-84h172v-172h84v172h172zM512 852.667q176 0 301-125t125-301-125-301-301-125-301 125-125 301 125 301 301 125z" />
<glyph unicode="&#xe906;" glyph-name="home" d="M879.524-76.4h-735.043c-79.732 0-144.48 64.886-144.48 144.48v387.936c0 40.553 17.183 79.457 47.013 106.676l360.442 329.236c26.532 24.195 60.899 37.666 96.777 37.804 0.275 0 0.413 0 0.688 0 35.741 0 69.971-13.060 96.502-36.979l374.601-336.111c30.518-27.357 47.976-66.534 47.976-107.637v-380.926c0-79.732-64.886-144.48-144.48-144.48zM484.302 807.798l-360.305-329.236c-6.323-5.773-9.897-13.884-9.897-22.545v-387.936c0-16.772 13.609-30.381 30.381-30.381h734.906c16.772 0 30.381 13.609 30.381 30.381v381.063c0 8.661-3.712 16.908-10.172 22.682l-374.326 336.111c-11.685 10.447-29.28 10.447-40.965-0.138v0z" />
<glyph unicode="&#xe907;" glyph-name="calendar" d="M298.667 853.334v-42.667h-85.333c-35.328 0-67.413-14.379-90.496-37.504s-37.504-55.168-37.504-90.496v-597.333c0-35.328 14.379-67.413 37.504-90.496s55.168-37.504 90.496-37.504h597.333c35.328 0 67.413 14.379 90.496 37.504s37.504 55.168 37.504 90.496v597.333c0 35.328-14.379 67.413-37.504 90.496s-55.168 37.504-90.496 37.504h-85.333v42.667c0 23.552-19.115 42.667-42.667 42.667s-42.667-19.115-42.667-42.667v-42.667h-256v42.667c0 23.552-19.115 42.667-42.667 42.667s-42.667-19.115-42.667-42.667zM853.333 554.667h-682.667v128c0 11.776 4.736 22.4 12.501 30.165s18.389 12.501 30.165 12.501h85.333v-42.667c0-23.552 19.115-42.667 42.667-42.667s42.667 19.115 42.667 42.667v42.667h256v-42.667c0-23.552 19.115-42.667 42.667-42.667s42.667 19.115 42.667 42.667v42.667h85.333c11.776 0 22.4-4.736 30.165-12.501s12.501-18.389 12.501-30.165zM170.667 469.334h682.667v-384c0-11.776-4.736-22.4-12.501-30.165s-18.389-12.501-30.165-12.501h-597.333c-11.776 0-22.4 4.736-30.165 12.501s-12.501 18.389-12.501 30.165z" />
<glyph unicode="&#xe908;" glyph-name="user" horiz-adv-x="888" d="M861.871-85.28v0c-12.957 0.889-23.131 11.618-23.131 24.723 0 0.105 0.001 0.209 0.002 0.314v-0.016c0.032 1.961 0.050 4.275 0.050 6.594 0 124.705-52.473 237.154-136.545 316.473l-0.213 0.199c-4.758 4.524-7.718 10.901-7.718 17.97 0 6.133 2.228 11.746 5.92 16.073l-0.029-0.035c4.585 5.38 11.368 8.77 18.942 8.77 6.633 0 12.66-2.6 17.115-6.837l-0.010 0.010c93.769-88.569 152.138-213.756 152.138-352.577 0-2.52-0.019-5.036-0.058-7.547l0.005 0.379c-0.173-13.593-11.232-24.545-24.849-24.545-0.569 0-1.134 0.019-1.694 0.057l0.076-0.004zM743.951 638.288c0-165.889-134.48-300.369-300.369-300.369v0c-0.070 0-0.153 0-0.235 0-29.911 0-58.806 4.352-86.085 12.458l2.135-0.544 0.084 0.084h-0.422l0.338-0.106c-2.808-2.814-6.291-4.953-10.186-6.153l-0.175-0.046c-54.92-16.529-138.63-53.98-206.16-137.173-80.162-98.739-93.131-207.713-93.237-267.047-0.033-13.682-11.132-24.761-24.82-24.761-13.707 0-24.82 11.112-24.82 24.82 0 0.020 0 0.041 0 0.061v-0.003c0.18 66.337 14.786 187.9 104.337 298.225 60.56 74.606 132.663 116.303 190.508 139.412l0.433-0.243c0.074 0.169 0.169 0.349 0.253 0.518l-0.686-0.275c-24.239 14.022-45.143 30.167-63.65 48.705l-0.004 0.004c-54.357 54.356-87.977 129.449-87.977 212.394 0 165.889 134.48 300.369 300.369 300.369s300.369-134.48 300.369-300.369c0-0.001 0-0.002 0-0.003v0zM694.312 638.583c-0.158 137.806-112.628 250.307-250.434 250.434-138.493 0.169-251.195-112.533-251.026-251.026 0.158-137.796 112.628-250.307 250.434-250.434 138.482-0.158 251.195 112.543 251.026 251.004z" />
<glyph unicode="&#xe909;" glyph-name="logout" d="M339.945 920.16c13.639 0 24.695-11.056 24.695-24.695s-11.056-24.695-24.695-24.695v0h-125.383c-79.579 0-146.666-85.015-146.666-192.47v-503.383c0-107.339 67.203-192.47 146.666-192.47h125.383c13.607 0 24.637-11.030 24.637-24.637s-11.030-24.637-24.637-24.637v0h-125.383c-109.768 0-196.056 109.421-196.056 241.744v503.383c0 132.439 86.288 241.86 196.056 241.86zM780.521 628.101c4.479 4.449 10.651 7.199 17.466 7.199s12.986-2.75 17.467-7.2l182.869-182.984c0.243-0.301 0.509-0.566 0.8-0.802l0.010-0.008c0.463-0.578 1.041-1.157 1.504-1.735s0.694-1.041 1.041-1.504c0.381-0.581 0.766-1.263 1.108-1.97l0.049-0.112c0.347-0.694 0.578-1.272 0.925-1.966s0.463-1.157 0.694-1.851c0.218-0.635 0.418-1.413 0.563-2.21l0.016-0.103c0.353-1.593 0.562-3.428 0.578-5.309v-0.012l-0.231 3.239c0.116-0.694 0.116-1.504 0.231-2.198v-2.198c-0.022-0.751-0.105-1.467-0.245-2.163l0.014 0.081-0.347-2.082c-0.16-0.854-0.36-1.592-0.611-2.306l0.033 0.108c-0.231-0.694-0.463-1.272-0.694-1.966s-0.578-1.272-0.81-1.851-0.81-1.388-1.157-2.082c-0.993-1.519-2.060-2.843-3.243-4.053l0.005 0.005 2.198 2.545c-0.494-0.637-0.986-1.203-1.508-1.74l0.004 0.005-0.81-0.81-183.101-182.754c-4.47-4.47-10.645-7.235-17.466-7.235-13.642 0-24.7 11.059-24.7 24.7 0 6.821 2.765 12.996 7.235 17.466l140.767 140.882h-556.243c-0.020 0-0.044 0-0.068 0-12.048 0-22.075 8.657-24.199 20.090l-0.023 0.152-0.347 4.395c0.013 13.601 11.036 24.624 24.636 24.637h556.244l-140.651 140.767c-4.461 4.478-7.219 10.655-7.219 17.476 0 5.225 1.618 10.072 4.381 14.068l-0.054-0.083 2.892 3.47zM339.945-85.333h-125.383c-58.539 0-113.122 27.76-153.606 78.191-39.327 48.858-60.957 113.516-60.957 182.060v503.383c0 68.591 21.63 133.295 60.957 182.187 40.483 50.419 95.067 78.179 153.606 78.179h125.383c23.86 0 43.202-19.342 43.202-43.202s-19.342-43.202-43.202-43.202v0h-125.383c-32.873 0-64.311-17.35-88.508-48.731-25.574-33.185-39.651-77.659-39.651-125.233v-503.383c0-47.516 14.1-91.978 39.685-125.186 24.232-31.427 55.647-48.777 88.474-48.777h125.383c23.828 0 43.144-19.316 43.144-43.144s-19.316-43.144-43.144-43.144v0zM214.562 901.654c-47.1 0-91.377-22.856-124.77-64.357-34.029-42.346-52.779-98.814-52.779-158.996v-503.383c0-60.147 18.75-116.569 52.779-158.892 33.358-41.49 77.67-64.346 124.77-64.346h125.383c3.383 0.007 6.124 2.747 6.13 6.13v0.001c0 0.017 0 0.038 0 0.058 0 3.354-2.719 6.073-6.073 6.073-0.020 0-0.041 0-0.061 0h-125.38c-91.076 0-165.172 94.639-165.172 210.977v503.383c0 116.338 74.096 210.977 165.172 210.977h125.383c3.395 0.078 6.118 2.842 6.13 6.245v0.001c-0.007 3.383-2.747 6.124-6.13 6.13h-0.001zM797.917 201.648c-0.046 0-0.101 0-0.155 0-23.821 0-43.132 19.311-43.132 43.132 0 11.9 4.819 22.675 12.613 30.479l109.27 109.363h-511.584c-0.018 0-0.039 0-0.061 0-21.115 0-38.686 15.172-42.406 35.209l-0.041 0.266-0.162 0.902-0.474 6.767c0.026 23.817 19.327 43.117 43.141 43.144h511.586l-109.086 109.178c-7.813 7.822-12.645 18.624-12.645 30.554 0 9.145 2.839 17.627 7.684 24.612l-0.094-0.143 0.486 0.706 3.979 4.777 0.601 0.59c7.839 7.777 18.635 12.583 30.554 12.583 11.878 0 22.642-4.773 30.477-12.507l183.316-183.154 1.851-2.313c0.509-0.567 0.995-1.157 1.446-1.689l0.359-0.463c0.37-0.497 0.752-1.041 1.157-1.596l0.509-0.74c0.758-1.138 1.528-2.471 2.215-3.853l0.099-0.219c0.289-0.578 0.521-1.087 0.763-1.608l0.162-0.37 0.347-0.682 0.278-0.706c0.289-0.706 0.671-1.666 1.076-2.88l0.324-1.076c0.332-1.030 0.653-2.326 0.895-3.65l0.031-0.202c0.286-1.399 0.536-3.143 0.692-4.913l0.013-0.188 0.15-0.879v-3.736c-0.017-1.814-0.188-3.576-0.503-5.289l0.029 0.188-0.359-2.094c-0.341-1.939-0.782-3.627-1.344-5.259l0.072 0.239c-0.174-0.521-0.347-0.983-0.509-1.457-0.058-0.131-0.121-0.299-0.175-0.472l-0.010-0.037-0.37-0.995c-0.208-0.544-0.474-1.157-0.74-1.735l-0.717-1.562c-0.335-0.694-0.729-1.376-1.157-2.059l-0.116-0.197-0.428-0.844-0.636-0.96c-0.671-0.995-1.33-1.92-1.989-2.799v0l-0.174-0.22c-1.098-1.412-2.208-2.668-3.39-3.852l0.001 0.001h-0.058l-183.112-182.754c-7.766-7.748-18.485-12.539-30.323-12.539-0.079 0-0.158 0-0.236 0.001h0.012zM358.996 426.042c0.77-2.574 3.117-4.419 5.895-4.419 0.014 0 0.027 0 0.041 0h600.9l-172.344-172.471c-1.222-1.136-1.984-2.752-1.984-4.546 0-3.424 2.776-6.2 6.2-6.2 1.791 0 3.405 0.76 4.537 1.974l0.003 0.004 183.818 183.529 0.266 0.463 0.174 0.405c0.069 0.197 0.139 0.393 0.22 0.59l0.139 0.393 0.231 1.353-0.127 1.677c0 0.139 0 0.278-0.081 0.428l-0.069 0.324c-0.127 0.266-0.243 0.532-0.37 0.787l-0.162 0.37-0.139 0.266c0 0.081-0.104 0.162-0.162 0.243l-0.104 0.116c-0.393 0.382-0.729 0.74-1.018 1.064l-182.476 182.569c-1.141 1.13-2.711 1.828-4.444 1.828-1.507 0-2.891-0.528-3.977-1.409l0.012 0.009-1.423-1.712c-0.489-0.875-0.777-1.92-0.777-3.032 0-1.709 0.68-3.26 1.785-4.395l172.227-172.343h-600.855c-3.213-0.002-5.848-2.476-6.106-5.623l-0.001-0.022z" />
<glyph unicode="&#xe90a;" glyph-name="config" horiz-adv-x="1138" d="M801.666 919.397c27.398 0 54.796-16.439 71.126-38.357l235.405-416.014c16.439-21.919 16.439-54.796 0-76.605l-235.405-416.124c-16.439-27.398-38.357-38.357-71.126-38.357h-470.811c-27.398 0-54.796 16.439-71.126 38.357l-229.926 416.014c-16.439 21.919-16.439 54.796 0 76.605l235.405 416.124c10.959 21.919 38.357 38.357 65.646 38.357h470.811zM801.666 864.601h-470.811c-5.48 0-16.439-5.48-21.919-10.959l-229.926-416.014c-5.48-5.48-5.48-16.439 0-21.919l235.405-416.014c0-5.48 10.959-10.959 16.439-10.959h465.331c10.959 0 16.439 5.48 21.919 10.959l235.405 416.014c5.48 5.48 5.48 16.439 0 21.919l-235.405 416.014c0 5.48-10.959 10.959-16.439 10.959v0zM566.261 645.634c120.442 0 218.966-98.524 218.966-218.966s-98.524-218.966-218.966-218.966-218.966 98.524-218.966 218.966 98.524 218.966 218.966 218.966v0zM566.261 590.948c-93.044 0-164.28-71.126-164.28-164.28s71.126-164.28 164.28-164.28 164.28 71.235 164.28 164.28-71.235 164.28-164.28 164.28zM801.666-83.596h-470.811c-31.234 0-64.66 17.864-85.154 45.371l-0.658 0.986-0.548 1.096-229.487 415.028c-9.754 13.48-15.014 30.357-15.014 47.782s5.37 34.412 15.124 47.782l234.638 414.809c14.247 28.056 47.563 47.673 81.099 47.673h470.811c31.234 0 64.66-17.864 85.154-45.371l0.658-0.877 0.548-0.986 234.857-415.137c9.754-13.48 15.124-30.467 15.124-47.892s-5.37-34.412-15.124-47.782l-235.076-415.685c-19.179-31.891-46.577-46.796-86.14-46.796zM274.525-18.169c14.028-18.192 36.494-30.357 56.331-30.357h470.811c27.398 0 43.070 8.329 56.002 29.7l235.844 416.891 0.658 0.877c11.726 15.562 11.726 39.892 0 55.564l-0.658 0.877-0.548 0.986-234.857 415.028c-14.028 18.302-36.604 30.467-56.44 30.467h-470.811c-20.275 0-41.755-12.274-49.974-28.713l-0.438-0.767-235.953-417.11-0.658-0.877c-11.726-15.562-11.726-39.892 0-55.564l0.767-0.986 0.548-1.096 229.378-414.918zM796.187-28.8h-465.331c-10.521 0-29.042 7.671-33.207 22.467l-232.994 411.85c-9.535 11.726-9.644 30.467-0.11 42.303l230.254 416.562 1.753 1.753c7.891 7.891 22.905 16.11 34.303 16.11h470.811c10.521 0 29.042-7.671 33.207-22.467l233.104-411.85c9.644-11.836 9.644-30.576 0-42.412l-235.734-416.453-1.644-1.644c-6.466-6.576-16.22-16.22-34.412-16.22zM331.623 6.27h464.564c2.959 0 4.055 0.438 7.891 4.165l235.624 416.233-0.219 0.219-1.206 2.082-236.392 417.658c-0.329 0.11-0.767 0.329-0.986 0.438h-469.276c-1.973-0.548-6.028-2.521-8.767-4.603l-229.706-415.466-0.329-0.329 0.219-0.219 237.488-419.74c0.438-0.219 0.767-0.329 1.096-0.438zM566.261 190.167c-62.906 0-122.306 24.658-167.019 69.482-44.823 44.823-69.482 104.113-69.482 167.019s24.658 122.306 69.482 167.019 104.113 69.482 167.019 69.482c62.906 0 122.306-24.658 167.019-69.482 44.823-44.823 69.482-104.113 69.482-167.019s-24.658-122.306-69.482-167.019c-44.714-44.823-104.113-69.482-167.019-69.482zM566.261 628.1c-111.017 0-201.432-90.414-201.432-201.432s90.414-201.432 201.432-201.432 201.432 90.414 201.432 201.432-90.414 201.432-201.432 201.432zM566.261 244.854c-49.755 0-95.674 18.631-129.429 52.385s-52.385 79.784-52.385 129.429c0 49.755 18.631 95.674 52.385 129.429s79.784 52.385 129.429 52.385c49.646 0 95.674-18.631 129.429-52.385s52.385-79.784 52.385-129.429c0-49.646-18.631-95.674-52.385-129.429s-79.674-52.385-129.429-52.385zM566.261 573.413c-83.619 0-146.745-63.125-146.745-146.745s63.125-146.745 146.745-146.745c83.619 0 146.745 63.125 146.745 146.745s-63.125 146.745-146.745 146.745z" />
<glyph unicode="&#xe90b;" glyph-name="data" horiz-adv-x="561" d="M108.794-83.787c-59.602 0.070-107.897 48.38-107.942 107.981v804.966c-0.028 0.913-0.044 1.988-0.044 3.067 0 59.638 48.347 107.985 107.985 107.985s107.985-48.347 107.985-107.985c0-1.079-0.016-2.152-0.047-3.223l0.004 0.158v-804.997c-0.065-59.59-48.352-107.881-107.935-107.951h-0.007zM108.794 864.831c-19.701-0.025-35.661-16.001-35.661-35.705 0 0 0 0 0 0v0-804.997c0-19.704 15.96-35.68 35.659-35.705h0.002c19.701 0.025 35.661 16.001 35.661 35.705 0 0 0 0 0 0v0 805.032c-0.020 19.689-15.973 35.645-35.659 35.67h-0.002zM452.641-83.787c-59.602 0.070-107.897 48.38-107.942 107.981v487.419c0 59.614 48.327 107.942 107.942 107.942s107.942-48.327 107.942-107.942v0-487.45c-0.065-59.59-48.352-107.881-107.935-107.951h-0.007zM452.641 547.276c-19.701-0.025-35.661-16.001-35.661-35.705 0 0 0 0 0 0v0-487.45c-0.028-0.526-0.044-1.143-0.044-1.763 0-19.719 15.985-35.705 35.705-35.705s35.705 15.985 35.705 35.705c0 0.62-0.016 1.236-0.047 1.848l0.004-0.086v487.494c-0.025 19.685-15.976 35.636-35.659 35.661h-0.002z" />
<glyph unicode="&#xe90c;" glyph-name="card" horiz-adv-x="1332" d="M1184.193-85.333h-1036.284c-81.689 0-147.909 84.832-147.909 189.477v645.046c0 104.645 66.178 189.477 147.909 189.477h1036.284c81.689 0 147.867-84.832 147.867-189.477v-645.060c0-104.631-66.178-189.463-147.867-189.463zM94.663 450.808v-346.678c0-37.667 23.838-68.205 53.246-68.205h1036.284c29.408 0 53.246 30.539 53.246 68.205v645.060c0 37.667-23.838 68.205-53.246 68.205h-1036.284c-29.408 0-53.246-30.539-53.246-68.205v-143.304c0-9.361 5.942-16.944 13.249-16.903l952.389 4.467c7.28 0 13.208-7.5 13.236-16.848l0.248-87.452c0-9.334-5.86-16.931-13.139-16.972l-952.886-4.467c-7.224-0.028-13.098-7.597-13.098-16.903z" />
<glyph unicode="&#xe90d;" glyph-name="card-preenchimento" horiz-adv-x="1497" d="M0 458.312v-454.272c0-49.359 31.24-89.373 69.81-89.373h1357.882c38.538 0 69.81 40.014 69.81 89.373v845.255c0 49.359-31.24 89.373-69.81 89.373h-1357.913c-38.538 0-69.81-40.014-69.81-89.373v-187.804c0-12.264 7.79-22.212 17.373-22.212l1247.947 5.855c9.52 0 17.31-9.821 17.357-22.069l0.317-114.599c0-12.217-7.679-22.212-17.214-22.212l-1248.645-5.855c-9.52 0-17.167-9.964-17.167-22.212z" />
<glyph unicode="&#xe90e;" glyph-name="home-preenchimento" horiz-adv-x="1047" d="M487.188 928.197l-474.164-433.393c-8.016-7.329-13.025-17.832-13.025-29.505 0-0.057 0-0.114 0-0.17v0.009-510.477c0-22.082 17.897-39.985 39.977-39.994h967.223c22.088 0 39.994 17.906 39.994 39.994v0 501.514c-0.012 11.85-5.167 22.494-13.351 29.823l-0.038 0.034-492.677 442.34c-7.089 6.392-16.524 10.302-26.873 10.302-10.44 0-19.95-3.98-27.097-10.505l0.031 0.028z" />
<glyph unicode="&#xe90f;" glyph-name="data-preenchimento" horiz-adv-x="484" d="M41.585 938.667c-22.967 0-41.585-18.618-41.585-41.585v0 0-938.632c0-22.967 18.618-41.585 41.585-41.585v0 0c22.967 0 41.585 18.618 41.585 41.585v0 0 938.632c0 22.967-18.618 41.585-41.585 41.585v0zM442.583 568.383c-22.967 0-41.585-18.618-41.585-41.585v0 0-568.437c0-0.624 0-1.337 0-2.064 0-22.991 18.638-41.63 41.63-41.63s41.63 18.638 41.63 41.63v0c0 0.728 0 1.485 0 2.154v568.348c0 22.967-18.618 41.585-41.585 41.585v0z" />
<glyph unicode="&#xe910;" glyph-name="config-preenchido" horiz-adv-x="1142" d="M804.399 866.090h-472.412c-5.498 0-16.495-5.498-21.993-10.997l-230.708-417.43c-5.498-5.498-5.498-16.495 0-21.993l236.206-417.43c0-5.498 10.997-10.997 16.495-10.997h466.914c10.997 0 16.495 5.498 21.993 10.997l236.206 417.43c5.498 5.498 5.498 16.495 0 21.993l-236.206 417.43c0 5.498-10.997 10.997-16.495 10.997zM568.192 646.378c120.852 0 219.711-98.859 219.711-219.711s-98.859-219.711-219.711-219.711-219.711 98.859-219.711 219.711 98.859 219.711 219.711 219.711zM568.192 591.505c-93.361 0-164.838-71.368-164.838-164.838s71.368-164.838 164.838-164.838 164.838 71.478 164.838 164.838-71.478 164.838-164.838 164.838zM804.399-85.333h-472.412c-31.34 0-64.88 17.924-85.443 45.526l-0.66 0.99-0.55 1.1-230.268 416.44c-9.426 13.344-15.066 29.947-15.066 47.867 0 17.987 5.682 34.647 15.35 48.283l-0.175-0.26 235.436 416.22c14.296 28.151 47.725 47.835 81.375 47.835h472.412c31.34 0 64.88-17.924 85.443-45.526l0.66-0.88 0.55-0.99 235.656-416.55c9.493-13.368 15.176-30.020 15.176-48s-5.683-34.632-15.351-48.259l0.174 0.259-235.876-417.1c-19.244-32-46.735-46.955-86.433-46.955zM275.464-19.684c14.076-18.254 36.619-30.46 56.522-30.46h472.412c27.491 0 43.216 8.357 56.192 29.801l236.646 418.309 0.66 0.88c11.766 15.615 11.766 40.027 0 55.753l-0.66 0.88-0.55 0.99-235.656 416.44c-14.076 18.364-36.729 30.57-56.632 30.57h-472.412c-20.344 0-41.897-12.316-50.144-28.811l-0.44-0.77-236.756-418.529-0.66-0.88c-11.766-15.615-11.766-40.027 0-55.753l0.77-0.99 0.55-1.1 230.158-416.33zM332.756 4.839h466.144c2.969 0 4.069 0.44 7.918 4.179l236.426 417.649-0.22 0.22-1.21 2.089-237.196 419.079c-0.396 0.148-0.722 0.296-1.037 0.463l0.047-0.023h-470.873c-3.36-1.169-6.272-2.733-8.883-4.68l0.086 0.061-230.488-416.88-0.33-0.33 0.22-0.22 238.296-421.168c0.305-0.155 0.669-0.305 1.046-0.425l0.054-0.015zM568.192 189.361c-0.118 0-0.258 0-0.397 0-65.377 0-124.527 26.66-167.173 69.701l-0.018 0.018c-44.976 44.976-69.718 104.467-69.718 167.588 0 0.118 0 0.258 0 0.397 0 65.377 26.66 124.527 69.701 167.173l0.018 0.018c44.976 44.866 104.467 69.718 167.588 69.718 0.118 0 0.258 0 0.397 0 65.377 0 124.527-26.66 167.173-69.701l0.018-0.018c44.976-44.976 69.718-104.467 69.718-167.588-0.411-130.894-106.411-236.894-237.266-237.306h-0.040zM568.192 573.911c-83.904 0-147.244-63.34-147.244-147.244s63.34-147.244 147.244-147.244 147.244 63.34 147.244 147.244-63.34 147.244-147.244 147.244z" />
<glyph unicode="&#xe911;" glyph-name="visa" d="M443.719 265.831h-82.573l51.722 320.766h83.027zM744.522 578.883c-16.333 6.352-42.194 13.611-74.407 13.611-82.12 0-139.739-43.555-140.193-106.166-0.454-46.277 41.287-71.685 72.592-87.11 32.213-15.879 43.102-25.861 43.102-39.926-0.454-21.324-25.861-31.305-49.907-31.305-33.12 0-50.814 4.991-78.036 17.241l-10.889 4.991-10.889-72.138c19.509-9.074 55.351-16.787 92.555-17.241 87.11 0 143.823 43.102 144.276 109.795 0.454 36.75-21.777 64.425-69.87 87.564-29.037 14.518-46.731 24.5-46.731 39.472 0.454 13.611 14.972 27.676 47.638 27.676 26.768 0.907 46.731-5.898 61.703-12.25l7.713-3.63 11.343 69.416c0 0 0 0 0 0zM854.771 379.256c6.806 18.602 33.12 89.833 33.12 89.833-0.454-0.907 6.806 18.602 10.889 30.852l5.898-27.676c0 0 15.879-76.675 19.055-93.009-12.704 0-52.175 0-68.962 0v0zM957.307 586.596h-63.972c-19.963 0-34.935-5.898-43.555-26.768l-123.406-294.451h87.11c0 0 14.518 39.472 17.241 48.092 9.528 0 94.37 0 106.619 0 2.269-11.343 9.981-48.092 9.981-48.092h76.675l-66.694 321.219zM291.73 586.596l-81.212-218.683-9.074 44.463c-14.972 50.814-62.157 106.619-114.786 134.295l74.407-280.387h87.564l130.666 320.312h-87.564zM134.75 586.596h-133.388l-1.361-6.352c104.351-26.768 173.313-90.74 201.443-167.869l-29.037 147.452c-4.537 20.416-19.509 26.314-37.657 26.768v0z" />
<glyph unicode="&#xe912;" glyph-name="mastercard" d="M318.793 673.859c136.508-0.008 247.167-110.671 247.167-247.181 0-136.514-110.666-247.181-247.181-247.181s-247.181 110.666-247.181 247.181c0 68.258 27.667 130.054 72.399 174.785v0c44.487 44.72 106.070 72.397 174.117 72.397 0.238 0 0.477-0.001 0.715-0.001h-0.037zM318.793 745.46c-176.069 0-318.793-142.724-318.793-318.793s142.724-318.793 318.793-318.793 318.793 142.724 318.793 318.793-142.724 318.793-318.793 318.793zM705.207 673.859c136.508-0.008 247.167-110.671 247.167-247.181 0-136.514-110.666-247.181-247.181-247.181s-247.181 110.666-247.181 247.181c0 68.258 27.667 130.054 72.399 174.785v0c44.487 44.72 106.070 72.397 174.117 72.397 0.238 0 0.477-0.001 0.715-0.001h-0.037zM705.207 745.46c-176.069 0-318.793-142.724-318.793-318.793s142.724-318.793 318.793-318.793 318.793 142.724 318.793 318.793-142.724 318.793-318.793 318.793z" />
<glyph unicode="&#xe913;" glyph-name="chip" d="M56.2 835.067c-2-1.6-3.6-3.6-5.4-5.4-3-2.8-5.8-5.6-8.6-8.6-1.6-1.8-3.6-3.4-5.2-5.2-23-27.2-37-62.6-37-100.8v-28.6h289.6v185.6h-132.4c-38.4 0-73.6-13.8-101-37zM0 612.467h289.6v-148.8h-289.6v148.8zM0 389.667h289.6v-148.8h-289.6v148.8zM0 167.067v-28.6c0-38.4 14-73.6 37-101 1.6-2 3.6-3.6 5.4-5.4 2.6-2.8 5.4-5.6 8.4-8.4 1.8-1.8 3.4-3.8 5.4-5.4 27.4-23 62.6-37 101-37h132.4v185.8h-289.6zM987 816.067c-1.6 2-3.6 3.4-5.2 5.2-2.8 3-5.6 5.8-8.6 8.6-1.8 1.8-3.4 3.8-5.4 5.4-27.4 23-62.6 37-101 37h-503.2v-891.2h297v705.4h363.4v28.6c0 38.2-14 73.6-37 101zM734.4 612.467v-148.8h289.6v148.8zM734.4 389.667v-148.8h289.6v148.8zM734.4 167.067v-185.8h132.4c38.4 0 73.6 14 101 37 2 1.6 3.6 3.6 5.4 5.4 2.8 2.6 5.6 5.4 8.4 8.4 1.8 1.8 3.8 3.4 5.4 5.4 23 27.2 37 62.4 37 100.8v28.6h-289.6z" />
<glyph unicode="&#xe914;" glyph-name="arrow-left-s" horiz-adv-x="585" d="M533.943 894.781c0 0-14.629 7.314-21.943 7.314s-21.943-7.314-21.943-14.629l-438.857-438.857c-7.314 0-14.629-14.629-14.629-21.943s7.314-21.943 14.629-21.943l438.857-438.857c7.314-7.314 14.629-14.629 21.943-14.629s21.943 7.314 21.943 14.629c7.314 7.314 14.629 14.629 14.629 29.257s-7.314 21.943-14.629 29.257l-409.6 402.286 409.6 416.914c7.314 0 14.629 14.629 14.629 21.943s-7.314 21.943-14.629 29.257z" />
<glyph unicode="&#xe915;" glyph-name="arrow-down-s" d="M15.756 678.726c-7.879 0-15.756-15.756-15.756-23.628s7.879-23.628 15.756-31.507l472.616-472.616c0 0 15.756-7.879 23.628-7.879s23.628 7.879 23.628 15.756l472.616 472.616c7.879 7.879 15.756 15.756 15.756 31.507s-7.879 23.628-15.756 31.507c-7.879 7.879-15.756 15.756-23.628 15.756s-23.628-7.879-31.507-15.756l-441.11-456.859-441.11 441.11c-7.879 7.879-23.628 15.756-31.507 15.756s-23.628-7.879-23.628-15.756z" />
<glyph unicode="&#xe916;" glyph-name="arrow-top-s" d="M1008.246 166.729c7.877 7.877 15.754 15.754 15.754 23.631s-7.877 23.631-15.754 23.631l-472.615 472.615c0 7.877-15.754 15.754-23.631 15.754s-23.631-7.877-31.508-15.754l-472.615-472.615c0 0-7.877-15.754-7.877-23.631s7.877-23.631 15.754-23.631c0-7.877 15.754-15.754 23.631-15.754s23.631 7.877 31.508 15.754l441.108 441.108 448.985-441.108c7.877-7.877 15.754-15.754 31.508-15.754 0 0 15.754 7.877 15.754 15.754z" />
<glyph unicode="&#xe917;" glyph-name="arrow-right-s" horiz-adv-x="585" d="M43.886-41.447c7.314-7.314 14.629-14.629 29.257-14.629 7.314 0 21.943 7.314 29.257 14.629l438.857 438.857c0 7.314 7.314 21.943 7.314 29.257s-7.314 21.943-14.629 21.943l-438.857 438.857c0 7.314-14.629 14.629-21.943 14.629s-21.943-7.314-29.257-14.629c0 0-7.314-14.629-7.314-21.943s7.314-21.943 14.629-29.257l409.6-409.6-409.6-409.6c-7.314-7.314-14.629-14.629-14.629-29.257s7.314-21.943 7.314-29.257z" />
<glyph unicode="&#xe918;" glyph-name="trash-2" d="M768 640v-554.667c0-11.776-4.736-22.4-12.501-30.165s-18.389-12.501-30.165-12.501h-426.667c-11.776 0-22.4 4.736-30.165 12.501s-12.501 18.389-12.501 30.165v554.667zM725.333 725.334v42.667c0 35.328-14.379 67.413-37.504 90.496s-55.168 37.504-90.496 37.504h-170.667c-35.328 0-67.413-14.379-90.496-37.504s-37.504-55.168-37.504-90.496v-42.667h-170.667c-23.552 0-42.667-19.115-42.667-42.667s19.115-42.667 42.667-42.667h42.667v-554.667c0-35.328 14.379-67.413 37.504-90.496s55.168-37.504 90.496-37.504h426.667c35.328 0 67.413 14.379 90.496 37.504s37.504 55.168 37.504 90.496v554.667h42.667c23.552 0 42.667 19.115 42.667 42.667s-19.115 42.667-42.667 42.667zM384 725.334v42.667c0 11.776 4.736 22.4 12.501 30.165s18.389 12.501 30.165 12.501h170.667c11.776 0 22.4-4.736 30.165-12.501s12.501-18.389 12.501-30.165v-42.667zM384 469.334v-256c0-23.552 19.115-42.667 42.667-42.667s42.667 19.115 42.667 42.667v256c0 23.552-19.115 42.667-42.667 42.667s-42.667-19.115-42.667-42.667zM554.667 469.334v-256c0-23.552 19.115-42.667 42.667-42.667s42.667 19.115 42.667 42.667v256c0 23.552-19.115 42.667-42.667 42.667s-42.667-19.115-42.667-42.667z" />
<glyph unicode="&#xe919;" glyph-name="check-circle" d="M896 465.92v-39.253c-0.043-106.027-43.051-201.941-112.64-271.445s-165.547-112.384-271.573-112.299-201.984 43.051-271.445 112.64-112.384 165.504-112.341 271.573 43.051 201.941 112.64 271.445 165.547 112.384 271.573 112.341c56.747-0.043 110.336-12.331 155.691-33.067 21.419-9.813 46.763-0.341 56.533 21.077s0.341 46.763-21.077 56.533c-56.619 25.856-122.283 40.747-191.104 40.789-129.579 0.085-246.997-52.437-331.947-137.259s-137.557-202.24-137.643-331.819 52.437-246.997 137.259-331.947 202.197-137.6 331.776-137.643 246.997 52.437 331.947 137.259 137.6 202.197 137.685 331.819v39.253c0 23.552-19.115 42.667-42.667 42.667s-42.667-19.115-42.667-42.667zM908.501 798.166l-396.501-396.885-97.835 97.792c-16.683 16.683-43.691 16.683-60.331 0s-16.683-43.691 0-60.331l128-128c16.683-16.683 43.691-16.64 60.373 0l426.667 427.093c16.64 16.683 16.64 43.691-0.043 60.331s-43.691 16.64-60.331-0.043z" />
<glyph unicode="&#xe91a;" glyph-name="warning" d="M512 867.226l429.102-855.226h-858.206l429.104 855.226zM512 960c-22.070 0-44.14-14.882-60.884-44.648l-437.074-871.112c-33.486-59.532-5-108.24 63.304-108.24h869.308c68.3 0 96.792 48.708 63.3 108.24h0.002l-437.074 871.112c-16.742 29.766-38.812 44.648-60.882 44.648v0zM576 128c0-35.346-28.654-64-64-64s-64 28.654-64 64c0 35.346 28.654 64 64 64s64-28.654 64-64zM512 256c-35.346 0-64 28.654-64 64v192c0 35.346 28.654 64 64 64s64-28.654 64-64v-192c0-35.346-28.654-64-64-64z" />
<glyph unicode="&#xe91b;" glyph-name="checkmark" d="M1014.592 731.744l-90.848 90.848c-12.576 12.576-32.832 12.576-45.408 0l-464.48-490.368-266.24 266.368c-12.704 12.704-33.312 12.704-46.016 0l-92.032-92.096c-12.704-12.672-12.704-33.28 0-46.016l378.656-387.456c7.328-7.36 17.28-9.888 26.848-8.64 9.888-1.472 20.192 1.024 27.776 8.64l571.744 613.28c12.544 12.544 12.544 32.896 0 45.44z" />
<glyph unicode="&#xe91c;" glyph-name="cancel" d="M983.072 743.232l-294.304-296.096 294.304-294.336c12.32-12.288 12.32-32.224 0-44.544l-133.632-133.6c-12.256-12.32-32.192-12.32-44.512 0l-293.824 293.824-292.064-293.824c-12.288-12.32-32.224-12.32-44.544 0l-133.6 133.6c-12.288 12.32-12.288 32.256 0 44.544l292.064 293.824-292.032 292.032c-12.288 12.288-12.288 32.224 0 44.544l133.6 133.6c12.288 12.32 32.224 12.32 44.544 0l291.52-291.52 294.368 296.096c12.32 12.32 32.256 12.32 44.512 0l133.632-133.6c12.256-12.32 12.256-32.256-0.032-44.544z" />
<glyph unicode="&#xe91d;" glyph-name="help" d="M721.408 858.47c-58.368 42.086-131.686 63.13-219.955 63.13-67.123 0-123.802-14.797-169.83-44.442-73.062-46.387-111.872-125.184-116.582-236.288h169.318c0 32.41 9.472 63.488 28.314 93.594 18.893 30.003 50.944 45.005 96.154 45.005 45.978 0 77.67-12.186 94.925-36.506 17.357-24.422 26.010-51.405 26.010-80.998 0-25.805-12.902-49.408-28.518-70.81-8.55-12.493-19.814-24.013-33.843-34.509 0 0-91.802-58.88-132.096-106.189-23.347-27.392-25.446-68.506-27.546-127.386-0.102-4.198 1.485-12.902 16.128-12.902 14.694 0 118.579 0 131.635 0 13.107 0 15.821 9.677 15.974 14.029 0.922 21.402 3.277 32.41 7.219 44.8 7.373 23.398 27.546 43.776 50.125 61.389l46.592 32.102c42.086 32.819 75.622 59.699 90.47 80.794 25.293 34.611 43.11 77.312 43.11 128-0.051 82.688-29.235 144.998-87.603 187.187zM498.739 208.691c-58.317 1.792-106.445-38.605-108.288-101.888-1.792-63.181 43.93-105.011 102.298-106.701 60.877-1.792 107.725 37.222 109.619 100.506 1.741 63.283-42.701 106.291-103.629 108.083z" />
<glyph unicode="&#xe91e;" glyph-name="edit" d="M469.333 810.667h-298.667c-35.328 0-67.413-14.379-90.496-37.504s-37.504-55.168-37.504-90.496v-597.333c0-35.328 14.379-67.413 37.504-90.496s55.168-37.504 90.496-37.504h597.333c35.328 0 67.413 14.379 90.496 37.504s37.504 55.168 37.504 90.496v298.667c0 23.552-19.115 42.667-42.667 42.667s-42.667-19.115-42.667-42.667v-298.667c0-11.776-4.736-22.4-12.501-30.165s-18.389-12.501-30.165-12.501h-597.333c-11.776 0-22.4 4.736-30.165 12.501s-12.501 18.389-12.501 30.165v597.333c0 11.776 4.736 22.4 12.501 30.165s18.389 12.501 30.165 12.501h298.667c23.552 0 42.667 19.115 42.667 42.667s-19.115 42.667-42.667 42.667zM759.168 862.166l-405.333-405.333c-5.205-5.163-9.259-11.947-11.221-19.84l-42.667-170.667c-1.664-6.4-1.792-13.568 0-20.693 5.717-22.869 28.885-36.779 51.755-31.061l170.667 42.667c7.125 1.749 14.080 5.504 19.84 11.221l405.333 405.333c25.984 25.984 38.997 60.16 38.997 94.165s-13.013 68.181-38.997 94.165-60.203 39.040-94.208 39.040-68.181-13.013-94.165-38.997zM819.499 801.835c9.344 9.344 21.504 13.995 33.835 13.995s24.491-4.651 33.835-13.995 13.995-21.504 13.995-33.835-4.651-24.491-13.995-33.835l-396.971-396.971-90.197-22.571 22.571 90.197z" />
<glyph unicode="&#xe91f;" glyph-name="info" d="M981.333 426.667c0 129.579-52.565 246.997-137.472 331.861s-202.283 137.472-331.861 137.472-246.997-52.565-331.861-137.472-137.472-202.283-137.472-331.861 52.565-246.997 137.472-331.861 202.283-137.472 331.861-137.472 246.997 52.565 331.861 137.472 137.472 202.283 137.472 331.861zM896 426.667c0-106.069-42.923-201.984-112.469-271.531s-165.461-112.469-271.531-112.469-201.984 42.923-271.531 112.469-112.469 165.461-112.469 271.531 42.923 201.984 112.469 271.531 165.461 112.469 271.531 112.469 201.984-42.923 271.531-112.469 112.469-165.461 112.469-271.531zM554.667 256v170.667c0 23.552-19.115 42.667-42.667 42.667s-42.667-19.115-42.667-42.667v-170.667c0-23.552 19.115-42.667 42.667-42.667s42.667 19.115 42.667 42.667zM512 554.667c23.552 0 42.667 19.115 42.667 42.667s-19.115 42.667-42.667 42.667-42.667-19.115-42.667-42.667 19.115-42.667 42.667-42.667z" />
<glyph unicode="&#xe920;" glyph-name="x-circle" d="M981.333 426.667c0 129.579-52.565 246.997-137.472 331.861s-202.283 137.472-331.861 137.472-246.997-52.565-331.861-137.472-137.472-202.283-137.472-331.861 52.565-246.997 137.472-331.861 202.283-137.472 331.861-137.472 246.997 52.565 331.861 137.472 137.472 202.283 137.472 331.861zM896 426.667c0-106.069-42.923-201.984-112.469-271.531s-165.461-112.469-271.531-112.469-201.984 42.923-271.531 112.469-112.469 165.461-112.469 271.531 42.923 201.984 112.469 271.531 165.461 112.469 271.531 112.469 201.984-42.923 271.531-112.469 112.469-165.461 112.469-271.531zM353.835 524.502l97.835-97.835-97.835-97.835c-16.683-16.683-16.683-43.691 0-60.331s43.691-16.683 60.331 0l97.835 97.835 97.835-97.835c16.683-16.683 43.691-16.683 60.331 0s16.683 43.691 0 60.331l-97.835 97.835 97.835 97.835c16.683 16.683 16.683 43.691 0 60.331s-43.691 16.683-60.331 0l-97.835-97.835-97.835 97.835c-16.683 16.683-43.691 16.683-60.331 0s-16.683-43.691 0-60.331z" />
<glyph unicode="&#xe921;" glyph-name="eye" d="M4.523 445.739c-5.803-11.691-6.229-25.728 0-38.144 0 0 16.896-33.664 47.787-78.635 19.243-27.989 44.288-61.099 74.965-94.635 38.144-41.771 85.504-84.779 141.611-119.467 68.053-42.069 149.589-72.192 243.115-72.192s175.061 30.123 243.115 72.192c56.107 34.688 103.467 77.696 141.611 119.467 30.635 33.536 55.723 66.645 74.965 94.635 30.891 44.971 47.787 78.635 47.787 78.635 5.803 11.691 6.229 25.728 0 38.144 0 0-16.896 33.664-47.787 78.635-19.243 27.989-44.288 61.099-74.965 94.635-38.144 41.771-85.504 84.779-141.611 119.467-68.053 42.069-149.589 72.192-243.115 72.192s-175.061-30.123-243.115-72.192c-56.107-34.688-103.467-77.696-141.611-119.467-30.677-33.536-55.723-66.603-74.965-94.635-30.891-44.971-47.787-78.635-47.787-78.635zM91.307 426.667c6.955 11.989 17.365 29.056 31.317 49.408 17.493 25.429 40.107 55.296 67.627 85.376 34.347 37.589 75.733 74.923 123.477 104.448 57.6 35.584 123.776 59.435 198.272 59.435s140.672-23.851 198.229-59.435c47.744-29.525 89.131-66.859 123.477-104.448 27.477-30.080 50.133-59.947 67.627-85.376 13.995-20.352 24.405-37.376 31.317-49.408-6.955-11.989-17.365-29.056-31.317-49.408-17.493-25.429-40.107-55.296-67.627-85.376-34.347-37.589-75.733-74.923-123.477-104.448-57.557-35.584-123.733-59.435-198.229-59.435s-140.672 23.851-198.229 59.435c-47.744 29.525-89.131 66.859-123.477 104.448-27.477 30.080-50.133 59.947-67.627 85.376-13.995 20.352-24.405 37.419-31.36 49.408zM682.667 426.667c0 47.104-19.157 89.856-50.005 120.661s-73.557 50.005-120.661 50.005-89.856-19.157-120.661-50.005-50.005-73.557-50.005-120.661 19.157-89.856 50.005-120.661 73.557-50.005 120.661-50.005 89.856 19.157 120.661 50.005 50.005 73.557 50.005 120.661zM597.333 426.667c0-23.595-9.515-44.843-25.003-60.331s-36.736-25.003-60.331-25.003-44.843 9.515-60.331 25.003-25.003 36.736-25.003 60.331 9.515 44.843 25.003 60.331 36.736 25.003 60.331 25.003 44.843-9.515 60.331-25.003 25.003-36.736 25.003-60.331z" />
<glyph unicode="&#xe922;" glyph-name="chart" d="M211.456 358.4h-6.656c-56.357-0.26-101.943-46.006-101.943-102.399 0-56.554 45.846-102.4 102.4-102.4s102.4 45.846 102.4 102.4c0 16.603-3.952 32.284-10.966 46.152l0.268-0.585 105.472 159.232c1.69-0.098 3.667-0.154 5.656-0.154 9.83 0 19.342 1.365 28.356 3.915l-0.732-0.177 79.36-79.36c-2.262-8.030-3.563-17.251-3.563-26.776 0-56.554 45.846-102.4 102.4-102.4s102.4 45.846 102.4 102.4c0 16.663-3.98 32.397-11.042 46.303l0.269-0.583 107.008 159.232h6.656c56.357 0.26 101.943 46.006 101.943 102.399 0 56.554-45.846 102.4-102.4 102.4s-102.4-45.846-102.4-102.4c0-16.603 3.952-32.284 10.966-46.152l-0.268 0.585-105.472-159.232c-1.69 0.098-3.667 0.154-5.656 0.154-9.83 0-19.342-1.365-28.356-3.915l0.732 0.177-79.872 79.36c2.262 8.030 3.563 17.251 3.563 26.776 0 56.554-45.846 102.4-102.4 102.4s-102.4-45.846-102.4-102.4c0-16.663 3.98-32.397 11.042-46.303l-0.269 0.583-106.496-159.232zM0 768c0 56.32 46.080 102.4 102.4 102.4h819.2c56.554 0 102.4-45.846 102.4-102.4v0-614.4c0-56.554-45.846-102.4-102.4-102.4v0h-819.2c-56.554 0-102.4 45.846-102.4 102.4v0 614.4z" />
<glyph unicode="&#xe923;" glyph-name="chart-bar" d="M51.2 460.8h153.6v-512h-153.6v512zM307.2 972.8h153.6v-1024h-153.6v1024zM563.2 563.2h153.6v-614.4h-153.6v614.4zM819.2 768h153.6v-819.2h-153.6v819.2z" />
<glyph unicode="&#xe924;" glyph-name="chart-pie" d="M1021.44 409.6c-26.89-259.87-244.697-460.793-509.433-460.793-282.77 0-512 229.23-512 512 0 264.736 200.924 482.543 458.597 509.248l2.196 0.184v-560.64h560.64zM1017.344 542.72h-423.424v423.424c217.691-36.271 387.153-205.732 423.011-420.43l0.413-2.994z" />
<glyph unicode="&#xe925;" glyph-name="currency-dollar" d="M512-51.2c-282.77 0-512 229.23-512 512s229.23 512 512 512v0c282.77 0 512-229.23 512-512s-229.23-512-512-512v0zM563.2 204.8h51.2c84.831 0 153.6 68.769 153.6 153.6s-68.769 153.6-153.6 153.6v0h-205.312c-28.277 0-51.2 22.923-51.2 51.2s22.923 51.2 51.2 51.2v0h307.712v102.4h-153.6v102.4h-102.4v-102.4h-51.2c-84.831 0-153.6-68.769-153.6-153.6s68.769-153.6 153.6-153.6v0h204.8c28.277 0 51.2-22.923 51.2-51.2s-22.923-51.2-51.2-51.2v0h-307.2v-102.4h153.6v-102.4h102.4v102.4z" />
<glyph unicode="&#xe926;" glyph-name="menu" d="M839.68 512h-655.36c-28.262 0-30.72-22.886-30.72-51.2s2.458-51.2 30.72-51.2h655.36c28.262 0 30.72 22.886 30.72 51.2s-2.458 51.2-30.72 51.2zM839.68 307.2h-655.36c-28.262 0-30.72-22.886-30.72-51.2s2.458-51.2 30.72-51.2h655.36c28.262 0 30.72 22.886 30.72 51.2s-2.458 51.2-30.72 51.2zM184.32 614.4h655.36c28.262 0 30.72 22.886 30.72 51.2s-2.458 51.2-30.72 51.2h-655.36c-28.262 0-30.72-22.886-30.72-51.2s2.458-51.2 30.72-51.2z" />
<glyph unicode="&#xe9c7;" glyph-name="moon" d="M517.309-62.789c-22.691 0.029-45.007 1.526-66.885 4.41l2.595-0.278c-233.58 31.279-416.401 214.099-447.387 445.014l-0.291 2.662c-2.859 20.354-4.49 43.869-4.49 67.761 0 246.048 172.971 451.698 403.948 501.981l3.392 0.62c4.828 1.146 10.369 1.803 16.065 1.803 24.13 0 45.508-11.78 58.7-29.904l0.144-0.209c8.716-12.084 13.937-27.19 13.937-43.519 0-14.447-4.091-27.937-11.173-39.378l0.187 0.321c-26.726-45.102-42.523-99.41-42.523-157.408 0-16.683 1.308-33.056 3.823-49.030l-0.228 1.77c21.13-133.311 125.031-237.216 256.587-258.114l1.758-0.228c14.358-2.386 30.902-3.749 47.766-3.749 57.921 0 112.086 16.086 158.27 44.036l-1.366-0.768c10.914 6.566 24.086 10.453 38.167 10.453 16.715 0 32.146-5.473 44.609-14.724l-0.202 0.143c18.334-13.090 30.142-34.293 30.142-58.257 0-5.696-0.669-11.235-1.926-16.546l0.097 0.484c-49.878-235.319-255.888-409.342-502.54-409.342-0.413 0-0.822 0-1.235 0.001h0.064zM394.034 860.88c-178.936-53.807-307.056-217.078-307.056-410.275 0-236.171 191.454-427.623 427.623-427.623 193.197 0 356.468 128.116 409.491 304.027l0.784 3.028c-50.869-25.361-110.807-40.205-174.212-40.205-197.518 0-361.392 144.047-392.301 332.818l-0.31 2.3c-2.962 18.244-4.655 39.278-4.655 60.703 0 63.794 15.005 124.084 41.678 177.535l-1.042-2.307z" />
<glyph unicode="&#xe9c8;" glyph-name="sun" d="M512 153.605c-162.589 0-294.395 131.804-294.395 294.395s131.804 294.395 294.395 294.395c162.589 0 294.395-131.804 294.395-294.395v0c-0.29-162.471-131.922-294.103-294.366-294.395h-0.028zM512 665.596c-120.176 0-217.596-97.422-217.596-217.596s97.422-217.596 217.596-217.596c120.176 0 217.596 97.422 217.596 217.596v0c-0.29 120.058-97.538 217.306-217.567 217.596h-0.028zM512 806.395c-21.092 0.285-38.115 17.308-38.399 38.371v76.826c0 21.206 17.191 38.399 38.399 38.399s38.399-17.191 38.399-38.399v0-76.799c-0.285-21.092-17.308-38.115-38.371-38.399h-0.028zM512-63.99c-21.092 0.285-38.115 17.308-38.399 38.371v76.826c0 21.206 17.191 38.399 38.399 38.399s38.399-17.191 38.399-38.399v0-76.799c-0.285-21.092-17.308-38.115-38.371-38.399h-0.028zM985.591 409.601h-76.799c-21.206 0-38.399 17.191-38.399 38.399s17.191 38.399 38.399 38.399v0h76.799c21.206 0 38.399-17.191 38.399-38.399s-17.191-38.399-38.399-38.399v0zM115.206 409.601h-76.799c-21.206 0-38.399 17.191-38.399 38.399s17.191 38.399 38.399 38.399v0h76.799c21.206 0 38.399-17.191 38.399-38.399s-17.191-38.399-38.399-38.399v0zM230.404 691.196c-10.245 0.806-19.244 5.574-25.564 12.757l-0.035 0.043-55.808 51.2c-7.14 7.14-11.557 17.006-11.557 27.903 0 21.794 17.667 39.461 39.461 39.461 10.897 0 20.763-4.417 27.903-11.557v0l51.2-55.808c6.068-6.763 9.778-15.747 9.778-25.599s-3.711-18.837-9.81-25.635l0.031 0.035c-6.356-7.223-15.355-11.995-25.469-12.791l-0.131-0.009zM847.867 73.737c-0.052 0-0.116 0-0.178 0-10.545 0-20.084 4.307-26.953 11.261l-0.003 0.003-52.736 55.808c-2.366 4.842-3.748 10.533-3.748 16.548 0 21.206 17.191 38.399 38.399 38.399 6.016 0 11.709-1.383 16.778-3.85l-0.227 0.099 55.808-51.2c6.939-6.946 11.231-16.541 11.231-27.135s-4.291-20.189-11.231-27.136v0c-6.701-7.568-16.317-12.423-27.072-12.798l-0.065-0.001zM793.596 691.196c-10.245 0.806-19.244 5.574-25.564 12.757l-0.035 0.043c-6.068 6.763-9.778 15.747-9.778 25.599s3.711 18.837 9.81 25.635l-0.031-0.035 51.2 55.808c7.14 7.14 17.006 11.557 27.903 11.557 21.794 0 39.461-17.667 39.461-39.461 0-10.897-4.417-20.763-11.557-27.903v0l-55.808-51.2c-6.356-7.223-15.355-11.995-25.469-12.791l-0.131-0.009zM176.133 73.737c-0.052 0-0.116 0-0.178 0-10.545 0-20.084 4.307-26.953 11.261l-0.003 0.003c-6.939 6.946-11.231 16.541-11.231 27.135s4.291 20.189 11.231 27.136v0l55.808 52.736c4.842 2.366 10.533 3.748 16.548 3.748 21.206 0 38.399-17.191 38.399-38.399 0-6.016-1.383-11.709-3.85-16.778l0.099 0.227-51.2-55.808c-6.876-6.978-16.43-11.301-26.992-11.301-0.591 0-1.178 0.014-1.761 0.042l0.082-0.003z" />
<glyph unicode="&#xeb0a;" glyph-name="anticipation" d="M574.976 427.691l-97.792 30.208c-17.92 7.68-28.16 22.016-28.672 39.936 0 25.6 23.040 47.104 52.224 46.592h80.384c13.714 0 24.832 11.118 24.832 24.832s-11.118 24.832-24.832 24.832h-35.328v34.816c0 14.336-11.776 24.576-24.064 25.088s-24.576-11.776-24.576-25.088v-34.816c-54.784-1.536-99.328-44.544-99.328-96.256 0-37.888 22.016-70.144 58.88-86.016h2.56l100.352-31.232c32.768-10.24 36.864-23.040 35.84-36.352 0-25.6-23.040-47.104-52.224-46.592h-110.080c-13.714 0-24.832-11.118-24.832-24.832s11.118-24.832 24.832-24.832h64v-32.256c0-14.336 11.776-24.576 24.576-25.088s24.576 11.776 24.064 25.088v32.256c54.784 1.536 99.328 44.544 99.328 96.256 1.536 27.136-11.776 65.024-70.144 83.456zM871.424 728.235c-86.443 97.083-211.703 157.995-351.194 158.208h-0.038c-258.56 0-467.968-210.432-467.968-467.968 0-55.808 9.216-110.592 28.16-162.816 67.584-182.272 244.736-305.664 439.808-305.152 258.56 0 467.968 210.432 467.968 467.968 0 114.688-41.984 223.232-116.736 309.76zM520.192-0.341c-174.592 0-331.776 110.592-392.704 273.408-16.157 42.773-25.538 92.217-25.6 143.845v0.027c0 231.936 188.416 420.352 418.304 419.84 119.808 0 235.52-52.224 314.88-141.312 64.522-72.558 103.938-168.687 103.938-274.022 0-0.504-0.001-1.008-0.003-1.512v0.078c0-231.936-188.416-420.352-418.816-420.352z" />
</font>
</defs>
</svg>
